<svg xmlns="http://www.w3.org/2000/svg" width="160.982" height="220.947" viewBox="0 0 160.982 220.947"><g transform="translate(-623.018 -131.035)"><path d="M108,186h0l-9-15-9,15-9-15-9,15-9-15-9,15-9-15-9,15-9-15-9,15L9,171,2,182.667V0H102.613L142,38.211V182.667L135,171l-9,15-9-15-9,15Z" transform="translate(642 139)" fill="#f2f2f2"/><path d="M23,0,38.289,53.784,3.533,33.718Z" transform="translate(723.949 150.18) rotate(-30)" fill="#dedede"/><text transform="translate(676 246)" fill="#707070" font-size="44" font-family="Consolas"><tspan x="0" y="0">404</tspan></text><path d="M59.318,52.877H55.811l-1.317-1.1a29.109,29.109,0,0,0,6.8-18.691A28.4,28.4,0,1,0,33.006,61.673a29.387,29.387,0,0,0,18.638-6.816l1.315,1.1v3.518L74.886,81.464l6.578-6.6Zm-26.313,0A19.791,19.791,0,1,1,52.74,33.087,19.681,19.681,0,0,1,33.006,52.877Z" transform="translate(618.518 270.518)" fill="#9c9c9c"/></g></svg>