<svg xmlns="http://www.w3.org/2000/svg" width="22.255" height="18.546" viewBox="0 0 22.255 18.546"><path d="M19.473,21.546H2.782A2.785,2.785,0,0,1,0,18.764V8.564A2.785,2.785,0,0,1,2.782,5.782H5.995L7.574,3.413A.927.927,0,0,1,8.346,3H13.91a.927.927,0,0,1,.772.413L16.26,5.782h3.213a2.785,2.785,0,0,1,2.782,2.782v10.2A2.785,2.785,0,0,1,19.473,21.546ZM2.782,7.637a.928.928,0,0,0-.927.927v10.2a.928.928,0,0,0,.927.927H19.473a.928.928,0,0,0,.927-.927V8.564a.928.928,0,0,0-.927-.927H15.764a.927.927,0,0,1-.772-.413L13.413,4.855H8.842L7.263,7.224a.927.927,0,0,1-.772.413Z" transform="translate(0 -3)" fill="#fff"/><path d="M15.137,12A4.637,4.637,0,1,1,10.5,16.637,4.642,4.642,0,0,1,15.137,12Zm0,7.418a2.782,2.782,0,1,0-2.782-2.782A2.785,2.785,0,0,0,15.137,19.418Z" transform="translate(-4.009 -6.436)" fill="#fff"/></svg>