<svg xmlns="http://www.w3.org/2000/svg" width="18.288" height="16.253" viewBox="0 0 18.288 16.253"><path d="M12.783,2.646l2.864,2.864a.31.31,0,0,1,0,.438L8.712,12.882l-2.946.327a.618.618,0,0,1-.683-.683L5.41,9.58l6.934-6.934A.31.31,0,0,1,12.783,2.646Zm5.144-.727L16.377.369a1.242,1.242,0,0,0-1.753,0L13.5,1.493a.31.31,0,0,0,0,.438L16.364,4.8a.31.31,0,0,0,.438,0l1.124-1.124a1.242,1.242,0,0,0,0-1.753ZM12.192,11v3.232H2.032V4.068h7.3a.39.39,0,0,0,.27-.111l1.27-1.27a.381.381,0,0,0-.27-.651H1.524A1.524,1.524,0,0,0,0,3.56V14.736A1.524,1.524,0,0,0,1.524,16.26H12.7a1.524,1.524,0,0,0,1.524-1.524V9.726a.382.382,0,0,0-.651-.27l-1.27,1.27A.39.39,0,0,0,12.192,11Z" transform="translate(0 -0.007)" fill="#fff"/></svg>