<svg xmlns="http://www.w3.org/2000/svg" width="30" height="30" viewBox="0 0 30 30"><g transform="translate(1.5 1.5)"><path d="M28.5,33H7.5A4.505,4.505,0,0,1,3,28.5v-6a1.5,1.5,0,0,1,3,0v6A1.5,1.5,0,0,0,7.5,30h21A1.5,1.5,0,0,0,30,28.5v-6a1.5,1.5,0,0,1,3,0v6A4.505,4.505,0,0,1,28.5,33Z" transform="translate(-4.5 -4.5)" fill="#fff"/><path d="M18,24a1.5,1.5,0,0,1-1.061-.439l-7.5-7.5a1.5,1.5,0,0,1,2.121-2.121L18,20.379l6.439-6.439a1.5,1.5,0,0,1,2.121,2.121l-7.5,7.5A1.5,1.5,0,0,1,18,24Z" transform="translate(-4.5 -4.5)" fill="#fff"/><path d="M18,24a1.5,1.5,0,0,1-1.5-1.5V4.5a1.5,1.5,0,0,1,3,0v18A1.5,1.5,0,0,1,18,24Z" transform="translate(-4.5 -4.5)" fill="#fff"/></g></svg>