<svg xmlns="http://www.w3.org/2000/svg" width="13.5" height="14.999" viewBox="0 0 13.5 14.999"><g transform="translate(-5.25 -3.75)"><path d="M1994,1423v-1.5a2.253,2.253,0,0,0-2.25-2.25h-6a2.251,2.251,0,0,0-2.25,2.25v1.5a.75.75,0,0,1-1.5,0v-1.5a3.75,3.75,0,0,1,3.75-3.749h6a3.754,3.754,0,0,1,3.749,3.749v1.5a.75.75,0,1,1-1.5,0Z" transform="translate(-1976.75 -1405)" fill="#aaa"/><path d="M1982,1421.5a3.75,3.75,0,1,1,3.75,3.75A3.754,3.754,0,0,1,1982,1421.5Zm1.5,0a2.25,2.25,0,1,0,2.25-2.25A2.252,2.252,0,0,0,1983.5,1421.5Z" transform="translate(-1973.75 -1414)" fill="#aaa"/></g></svg>